/* XPM */
static char *e98b10d1102d4b548444b20b30b75c008EaMeveFWG8cyu1f[] = {
/* columns rows colors chars-per-pixel */
"64 64 194 2 ",
"   c None",
".  c #050005",
"X  c #070309",
"o  c #0A030A",
"O  c #0D080D",
"+  c #0E0911",
"@  c #110B13",
"#  c #190E16",
"$  c #140E19",
"%  c #1C0F1A",
"&  c #161116",
"*  c #1D1416",
"=  c #16131B",
"-  c #1E141B",
";  c #17181D",
":  c #1D1A1E",
">  c #20110E",
",  c #2A120F",
"<  c #220F1B",
"1  c #221315",
"2  c #2B1413",
"3  c #221816",
"4  c #21141D",
"5  c #29161B",
"6  c #22191E",
"7  c #291A1C",
"8  c #341513",
"9  c #321A16",
"0  c #32191B",
"q  c #3C1E1C",
"w  c #37201A",
"e  c #3E221F",
"r  c #171522",
"t  c #1D1521",
"y  c #161A24",
"u  c #1E1B23",
"i  c #1E1D29",
"p  c #1D1E30",
"a  c #231521",
"s  c #291723",
"d  c #231B23",
"f  c #2A1C25",
"g  c #251D2A",
"h  c #2B1D2B",
"j  c #311E22",
"k  c #311F2C",
"l  c #201F31",
"z  c #2E1F31",
"x  c #311F32",
"c  c #1F2032",
"v  c #242125",
"b  c #2B2327",
"n  c #25232B",
"m  c #282228",
"M  c #292129",
"N  c #2D212B",
"B  c #2C202A",
"V  c #2F232D",
"C  c #2F252D",
"Z  c #2D262D",
"A  c #2D262D",
"S  c #2C222C",
"D  c #2F292F",
"F  c #2D282E",
"G  c #302021",
"H  c #3A2224",
"J  c #31222F",
"K  c #30242E",
"L  c #32252F",
"P  c #31272F",
"I  c #32232D",
"U  c #3E232A",
"Y  c #33282E",
"T  c #3D292A",
"R  c #252431",
"E  c #2D2332",
"W  c #262932",
"Q  c #2F2830",
"!  c #2B2933",
"~  c #2F2938",
"^  c #332330",
"/  c #322431",
"(  c #312730",
")  c #332731",
"_  c #332733",
"`  c #342731",
"'  c #372636",
"]  c #322433",
"[  c #382336",
"{  c #332931",
"}  c #322830",
"|  c #312A31",
" . c #322B33",
".. c #312832",
"X. c #352933",
"o. c #352B34",
"O. c #352A34",
"+. c #342834",
"@. c #342D34",
"#. c #362C35",
"$. c #372D36",
"%. c #362F37",
"&. c #342A35",
"*. c #382E36",
"=. c #392D37",
"-. c #342639",
";. c #39263B",
":. c #352A3C",
">. c #392838",
",. c #382C38",
"<. c #392F38",
"1. c #3B2F39",
"2. c #3A2C39",
"3. c #3C2E3B",
"4. c #3C2C39",
"5. c #3D2F3C",
"6. c #3F2F3C",
"7. c #3B2C3D",
"8. c #373037",
"9. c #373037",
"0. c #393337",
"q. c #35323C",
"w. c #3B3139",
"e. c #3B313A",
"r. c #393239",
"t. c #3D323B",
"y. c #3B343B",
"u. c #3C303C",
"i. c #3F333D",
"p. c #3F313E",
"a. c #3E333F",
"s. c #3E343C",
"d. c #3C323D",
"f. c #40231F",
"g. c #422526",
"h. c #442920",
"j. c #4A2B24",
"k. c #4E2C2A",
"l. c #532B21",
"z. c #542D2B",
"x. c #5A3024",
"c. c #5B352D",
"v. c #492A32",
"b. c #402F3F",
"n. c #4C3231",
"m. c #40323F",
"M. c #41313E",
"N. c #41353F",
"B. c #40363F",
"V. c #553533",
"C. c #5D3631",
"Z. c #673E35",
"A. c #623D3C",
"S. c #66433F",
"D. c #74453D",
"F. c #372E41",
"G. c #3B2D43",
"H. c #3E2F49",
"J. c #373341",
"K. c #3D3244",
"L. c #3E3249",
"P. c #402D40",
"I. c #412F49",
"U. c #433741",
"Y. c #423441",
"T. c #423345",
"R. c #483747",
"E. c #433945",
"W. c #42344B",
"Q. c #453B4D",
"!. c #4A3A4C",
"~. c #453750",
"^. c #463B52",
"/. c #493D54",
"(. c #46444F",
"). c #464350",
"_. c #4A4153",
"`. c #4A4059",
"'. c #4E4A58",
"]. c #744B43",
"[. c #7B4C43",
"{. c #734A48",
"}. c #85503E",
"|. c #8B523F",
" X c #814F45",
".X c #84554D",
"XX c #8C574E",
"oX c #8C5A4F",
"OX c #925643",
"+X c #985947",
"@X c #91574C",
"#X c #945B4C",
"$X c #825653",
"%X c #925D51",
/* pixels */
"                                                                                                                                ",
"                                                                                                                                ",
"                                                                                                                                ",
"                                                            f :       & @                                                       ",
"                                                          v ..M = o - A A a +                                                   ",
"                                                      - M %.<.( M a P r.r.A - @                                                 ",
"                                                  @ 6 ..u.u.u.<.u.<.6.<.<.<.V f @ O                                             ",
"                                          6 f 6 f ( <.<.3.m.m.u.3.u.U.6.u.U.<.%.P a O                                           ",
"                                      a ..*.<.<.t.u.u.m.6.3.>.' I ] ( ] P ( ` o.r.y.%.6 O X                                     ",
"                                  : %.r.t.N.N.<.X.P h s 4 < < 4 4 a a a 4 4 a a - f P 8.0.D & .                                 ",
"                              & M *.s...B B f - a 6 4 4 4 4 a a 4 - - - - - - - a 6 = = a A %.%.a & - :                         ",
"                            v ..r...f 6 6 6 6 - % - 4 6 a 6 4 4 4 4 4 4 4 - - - # 6 a 6 - - a d A ......P :                     ",
"                        a ....Q a = = : : = - d 6 - - - - - - - - - - - - - - - 6 6 6 - - - - - a B ( *.U.r.d                   ",
"                    a D %.P a - a d f v v d d a a a u a - a a a - 4 - 4 4 6 6 6 - - = - - 6 6 6 - % f I ` N.N.f                 ",
"                  M o.( f - - a u u u u d v d : d d d d d : - - - - * * - - - - 6 6 a 6 6 - - - s % 4 a a o.N.%.v               ",
"                M *.o.a - a d t d u u u a u d d u u a a a a d d 6 6 4 6 6 6 6 6 d a 4 6 d d d a a f a - s h B X.r.f             ",
"              o...f 6 6 a 6 6 u u u u : : 6 6 6 a a a u a a d d d 6 d d f f g h h h h f f b v v v f d f 6 - s V %.%.M           ",
"            f A f a - 6 6 6 - - : : : : : 6 6 6 6 6 - u t a d d d d f f g g g g g g g M v v v v v v v v a - 6 f V o.P a         ",
"          S %.f 6 - - 6 6 6 - 6 6 6 a a a u - : 6 6 6 : a u u d a d d d d d u u d d v v v v v d v d d d a a 6 4 d P X.8.d       ",
"        v M V - - - - 6 6 - - 6 4 4 6 a t t - - - - : : : u u u u u d u u u u : : : : u u u u u d d a u a d s 6 4 d ..t.M       ",
"      d @.f 6 - 4 4 4 6 - - - 6 4 4 4 - t u u u f d d v v v M M n n n n n v v v u : : : : u u u u d d : 6 d d 6 6 - B X.D v @   ",
"    - f ..d - 6 - 4 4 4 - - - 6 4 4 6 a d g n M A A A D D D D Q W W W F A S m m v v v v u u u r u d a a 6 a 6 4 s % f B ..r.=   ",
"  - ..M f 6 6 4 - 4 4 4 - - 6 6 a a d f M n n n n M n M B B B M W W n A A B B I B B M M f d u r u : 6 6 6 6 6 4 6 6 6 f ( s.d   ",
"  - u.A 6 6 4 - 4 4 4 4 4 6 6 6 u u d v M M v g n R R R S B I B n n n M M B h k h k B V M g u u a - - - 6 6 6 6 - d - d V <.B a ",
"a V P h s 6 4 - 4 4 4 4 6 6 d a u u d d d f f g n c p l R S f f M v v g S h h h h h h h f f f f a a 6 - - - - 4 - 4 6 6 f ` ' V ",
"V ( ( f 6 6 4 - 4 4 4 4 6 6 6 a u u d 6 7 7 f f g g p p g g f b v v v v f g g g g g d f f f d 6 a a 6 6 4 - 4 4 4 4 - - d I >.>.",
"7.o.V f 6 4 4 4 4 4 - - 4 4 6 6 a 6 6 1 5 7 7 6 d i i g i u d 6 6 d d d u u u i n u u d d a 4 6 a a a 6 6 4 4 4 4 - - - s k 4.T.",
"E.<.h d 6 - - 6 * 4 - - 4 4 6 6 6 6 1 5 5 1 1 1 4 6 a a a d f : d 6 d d d d : : u : a a a - 6 d 6 6 6 6 4 - - - 4 - - 4 s h 4.R.",
"!.6.h d 4 - - 4 * * * * - - - - 4 1 4 4 4 4 1 2 2 2 , 2 1 1 6 6 a 6 4 1 1 3 3 1 * * 1 6 6 - - - - - - - - - * * 4 - - 6 s h 6.!.",
"!.6.V d 4 - - 4 * * * * - - - - 1 1 - - t - 4 0 q l.x.l.j.q 7 6 - 6 1 1 2 w h.j.j.e 9 5 1 6 - - - - - - - - - - 6 - - 6 f I P.!.",
"R.b.( f 6 4 - 4 - - - - - - - - * * : r y u B g.Z.}.OX|. XA.U k a d f H k.Z.[. X[.D.c.f.5 6 t t - - - - - - - - - - 6 s h ` 6.T.",
"R.P.o.h s - - - - - - - - - - - 1 * : y y i Y n.].#X+XOX%X{.v.I d a 7 H A..X%X#X@XXX[.V.j 6 t t t 6 - - - - - - - 6 a f I ' 7.7.",
"' >.7.E g - 6 - - - - - - - - - 1 * - : y u b T S..XXX.X$XA.H h u u d H V.]..XoXoX[.C.g.j 6 t r - 4 - - - - - - d 4 f f ] Y.>.>.",
"k o.Y.] h a t - - - - - 4 6 6 6 4 4 - : ; : 6 b e z.z.z.z.g.5 s t : - 7 H j.c.c.c.j.q 0 1 - t t - - - - - - - - d a h ] 7.G.] h ",
"a V E.,.E g a 6 - - * - - - - 4 4 4 - : : : - 3 2 8 8 8 8 2 1 6 - 4 4 3 3 2 2 9 9 2 1 1 1 4 4 6 - - - - - 6 a a f h E ' u.Y.h   ",
"  a U.u.o.V a a 4 - * * - - - - 4 - - - - - - 1 1 , , , 1 * - - 4 1 1 1 1 * 1 1 1 * 1 4 1 1 4 4 - - - - 6 s f h h E ( ' K.E.h   ",
"    r.u.u.o.h a 4 4 4 * 4 4 - - 4 4 - - t a 6 1 1 > 1 1 * - : - 4 1 4 4 4 - - : : - - 6 4 4 1 1 - - 6 a a h z x z ] o.7.s.%.    ",
"    m r.E.7.' h s 4 4 1 * 4 - - - 6 - - 4 a 4 - 4 1 1 3 * : : - 4 1 1 - - - : ; t t - - - 4 < 4 - - f h h z x x ] -.6.E.%.      ",
"      A E.K.Y.] h s 4 4 * - - - - - 4 - 4 4 4 - 1 * * * * = - = 4 * * - - - - t a t t t - - 4 6 a f h E ] ] ] -.>.G.K.u.v       ",
"      d E.K.!.>.[ k f 4 6 6 - - = - 6 4 < 4 4 - - * * * : : - - - - - - - - a a t t t t t a a f M S ] ] ] ] >.7.7.R.u.E         ",
"        E K.W.T.>.>.] h a - a d : : 6 6 4 4 4 4 - - - * - - 4 - - : - - - 4 4 1 4 4 4 s f S E Q E E E ( ,.-.;.T.R.T.]           ",
"        t 7.!./.R.>.] ] E g a d d d d d s s s 4 6 6 : : - 6 4 4 - - - 6 6 4 7 7 s s k I ( E E R E ] ,.7.7.7.E.T.T.E             ",
"        @ g 7.K.R.Y.6.7.] E E g d d f f f f f f f f f f f f s f g g h f f f f j I I I ] ] ] -.-.,.,.,.G.,.K.!.<.E               ",
"          $ g R ] o.K.T.o.:.:.R g g g h h h h h h h h h h k k k x ] ] I I P I P ` P I ] ] -.G.G.G.G.7.T.T.E.E.S                 ",
"              g t @ d K.E.7.7.:.-.] E V V h h h h h h h h h k k ] ] ] ] ] ( ( ( ] ( ' ,.G.G.G.G.7.K.K.E.!.r.                    ",
"                  . X d <.K.T.K.G.;.-.] ] E E E z z x x x E E E ] ] ] ] ] ] ] -.,.:.G.G.W.W.I.I.T.E.E.E.u.                      ",
"                      X = E K.K.H.G.:.:.:.:.:.-.-.-.-.-.-.] ] ] ] ] -.-.:.7.G.G.H.H.H.H.I.W.W.Q.!.T.E.,.                        ",
"                          + g 7.Q.W.K.G.F.F.:.:.:.:.;.:.:.:.<.<.,.:.7.7.G.G.G.H.H.H.I.W.W.W.W.Q.-.a                             ",
"                              - E u.T.K.K.K.G.G.G.G.G.G.G.7.:.G.:.7.G.G.G.K.W.H.H.W.W.L.E.Q.F.t                                 ",
"                                X A E.U.K.T.T.G.H.I.H.H.L.G.G.L.W.L.W.W.W.K.W.W.~.K.W._.L.g                                     ",
"                                  X - y.Q.K.G.Q.W.W.H.W.W.L.K.W.W.L.L.W.W.H.K.W.Q.E.E.K.                                        ",
"                                      = &.E.E.K.W.L.H.L.W.L.G.Q.^.^.^.^.W.W.Q.Q.^.K.                                            ",
"                                        $ &.T.E.Q.W.L.W.W.W.W.^./.`./.L.L.~.^.E.Q.                                              ",
"                                            R _.E.Q.W.L.W.W.W././.`.^.L.L./.^.                                                  ",
"                                              :.K.E.W.L.W.W.~././.`./.Q./._.                                                    ",
"                                                7.E.Q.L.W.Q./././.Q.Q./.                                                        ",
"                                                  K.K.K.E.Q.Q.K.~                                                               ",
"                                                  R K.L.K.Q.^.E                                                                 ",
"                                                    J.Q.K.Q.Q.                                                                  ",
"                                                    ~ Q.Q.Q.K.                                                                  ",
"                                                      q.).J.E                                                                   ",
"                                                      ! '.:.t                                                                   ",
"                                                      v (.n                                                                     ",
"                                                        @.=                                                                     "
};
