/* XPM */
static char *_029dee9acc945cebc4c4d0ab45d7ff8HKDoy2o3581PtAnH[] = {
/* columns rows colors chars-per-pixel */
"64 64 11 1 ",
"  c None",
". c #120D05",
"X c #1B140E",
"o c #391F0D",
"O c #211010",
"+ c #251B17",
"@ c #2F1919",
"# c #341F1F",
"$ c #46260F",
"% c #643E19",
"& c #432525",
/* pixels */
"                       XXXXXXXXXXXXXXXX                         ",
"                       X%%%%$$$$$$%%%%X                         ",
"                     XXX%$$oooo$$$$$$%XXX                       ",
"                   .X%%X%ooooooo$$ooo%X%%X.                     ",
"                 ..o$$$X$oooooooooooo%X$$$o..                   ",
"               XX$.oo$ooX$oooooooooo$Xoo$oo.$XX                 ",
"              .%$$o.ooooX$oooooooooooXoooo.o$$.                 ",
"              .%oooXooo+XooooooooooooX+oooXooo%.                ",
"             .$%ooooXo++XXXXXXXXXXXXXX++oXoooo.$.               ",
"            X%$Xooo+XoXX@.....@@.....@XXoX+oooX$%X              ",
"           .%%o$Xoo+XX.@@.....@@.....@@.XX+ooX$%%%.             ",
"           ..oo$Xo+X...@@.....@@.....@@...X+oXooo..             ",
"          .%$Xoo+XX....@@.....@@.....@@....XX+ooX$%.            ",
"          X%$$Xo+X@....@@.....@@.....@@....@X+oX$$%X            ",
"         X%%oo$+XX@....@@.....@@.....@@....@@XX$oo$%X           ",
"         .%ooooXX@@....@@.....@@.....@@....@@Xooooo%.           ",
"        X.$ooooXO&&&&&&&&&&&&&&&&&&&&&&&&&&&&O+oooo$..          ",
"        X$..oooXO&&&&&&&&&&&&&&&&&&&&&&&&&&&&O+ooo..%X          ",
"        X%$oXX+XOOOOOOOOOOOOOOOOOOOOOOOOOOOOOO++XXo$%X          ",
"        X%$oooX..@@....@@.....@@.....@@....@@.XXooo$%X          ",
"        X%ooo++..@@....@@.....@@.....@@....@@.X++ooo%X          ",
"        X$ooo++..@@....@@.....@@.....@@....@@.X++ooo$X          ",
"        XXXXXXXO&&&&&&&&&########&&&&&&&&&&&&&X..XXXXX          ",
"        X%%$$$$O&&&&&#########&&&&&&&&&&&&&&&&X$$$$%%X          ",
"        X%$$oooOOOOOOOOOOOOOOOOOOOOOOOOOOOOOOOXXX$$$%X          ",
"        X$$$ooo..@@....@@.....@@.....@@....@@.X%%X$$$X          ",
"        X$$oooo..@@....@@.....@@.....@@....@@.X$$%X$$X          ",
"        XXXXXXX..@@....@@.....@@.....@@....@@.X$$$%X$X          ",
"        X%%%%%%O&&&&&&&&&&&&######&&&&&&&&&&&&Xo$$$XoX          ",
"        X$$$$$oO&&&&&&&&&&&&&&&&#######&&&&&&&Xoo$$XoX          ",
"        XX$$$$oOOOOOOOOOOOOOOOOOOOOOOOOOOOOOOOXooo$XoX          ",
"        X%X$$oo..@@....@@.....@@.....@@....@@.XXXXXXXX          ",
"        X$%.$oo..@@....@@.....@@.....@@....@@.X%%%%%%X          ",
"        X$$Xooo..@@....@@.....@@.....@@....@@.X$$$$$$X          ",
"        X$$X$ooO&&&&&&&##########&&&&&&&&&&&&&Xo$$$$$X          ",
"       .XXXXXXXO&&&&&############&&&&&&&&&&&&&Xoo$o$$X          ",
"       Xooo%%%oOOOOOOOOOOOOOOOOOOOOOOOOOOOOOOOXoooo$$X          ",
"       Xooo$$$o..@@....@@.....@@.....@@....@@.Xoooo$$X          ",
"       Xooo$$$o..@@....@@.....@@.....@@....@@.XXXXXXXX          ",
"       Xoo$$$$o..@@....@@.....@@.....@@....@@.Xoo$$$$X          ",
"       Xooo$$$oO&&&&&&&&##&&&&&&&&##&&&&&&&&&&Xoooo$$X          ",
"       Xooooo$oO&&&&&#####&&&&&&&##&&&&&&&&&&&Xooooo$X          ",
"       XXXXXXXXOOOOOOOOOOOOOOOOOOOOOOOOOOOOOOOXXXXXXXX          ",
"        X%%%%%%..@@....@@.....@@.....@@....@@.X%%%XooX          ",
"        X$$$$$$..@@....@@.....@@.....@@....@@.X$$$%XoX          ",
"        X$$oooo..@@....@@.....@@.....@@....@@.X$$$%XoX          ",
"        XooooooO&&&&&&&&&&&######&&&&&&&&&&&&&X$$$$%XX          ",
"        XXXXXXXO&&&&&&&&&&###########&&&&&&&&&XXXXXXXX          ",
"       X%%%%%%XOOOOOOOOOOOOOOOOOOOOOOOOOOOOOOO$%%%%%%X          ",
"       X%$$$$$X..@@....@@.....@@.....@@....@@.o$$$$$%X          ",
"       X$$$$$$X..@@....@@.....@@.....@@....@@.o$$$$$$X          ",
"       X$$$$$oX..@@....@@.....@@.....@@....@@.o$$$$$$X          ",
"       X$$$$$oX&&&&&&&&&&&###############&&&&Oo$ooo$$X          ",
"       X$$$$$oX&&&&&&&&&&&&&&&&&###########&&Oo$oo$$$X          ",
"       XX$$$ooXOOOOOOOOOOOOOOOOOOOOOOOOOOOOOOOooooo$$X          ",
"       XX$$$o$X..@@....@@.....@@.....@@....@@.ooooo$$X          ",
"       XXo$o$$$..@@....@@.....@@.....@@....@@.XXXXXXXX          ",
"       XX$o$$$$..@@....@@.....@@.....@@....@@.X$$$$%%%X         ",
"       XX$oo$$oO&&########&&&&&&&&&&&#####&&&&X%%oo$$%X         ",
"       XX$$o$$oO&&&#&######&&&&&&&&&&####&&&&&X$$oo$$%X         ",
"       XX$$ooooOOOOOOOOOOOOOOOOOOOOOOOOOOOOOOOX$oo$$$$X         ",
"       XX$ooooo..@@....@@.....@@.....@@....@@.Xoooo$$$X         ",
"       XX$$oooo..@@....@@.....@@.....@@....@@.Xooooo$$X         ",
"       XXXXXXXX..@@....@@.....@@.....@@....@@.XXXXXXXXX         "
};
