/* XPM */
static char *_86689e79226452cea8e04dcd0b9558574PYON1hjdtcfcJI[] = {
/* columns rows colors chars-per-pixel */
"64 64 103 2 ",
"   c gray5",
".  c #101010",
"X  c #111111",
"o  c gray8",
"O  c #151515",
"+  c #161616",
"@  c gray9",
"#  c #181818",
"$  c #191919",
"%  c gray10",
"&  c #1B1B1B",
"*  c gray11",
"=  c #1D1D1D",
"-  c #1E1E1E",
";  c gray12",
":  c #202020",
">  c gray13",
",  c #222222",
"<  c #232323",
"1  c gray14",
"2  c #252525",
"3  c gray15",
"4  c #272727",
"5  c #282828",
"6  c gray16",
"7  c #2A2A2A",
"8  c gray17",
"9  c #2C2C2C",
"0  c #2D2D2D",
"q  c gray18",
"w  c #2F2F2F",
"e  c gray19",
"r  c #313131",
"t  c #323232",
"y  c gray20",
"u  c #343434",
"i  c #353535",
"p  c gray21",
"a  c #373737",
"s  c gray22",
"d  c #393939",
"f  c #3A3A3A",
"g  c gray23",
"h  c #3C3C3C",
"j  c gray24",
"k  c #3E3E3E",
"l  c #3F3F3F",
"z  c gray25",
"x  c #414141",
"c  c gray26",
"v  c #434343",
"b  c #444444",
"n  c gray27",
"m  c #464646",
"M  c gray28",
"N  c #484848",
"B  c #494949",
"V  c gray29",
"C  c #4B4B4B",
"Z  c #4C4C4C",
"A  c gray30",
"S  c #4E4E4E",
"D  c gray31",
"F  c #505050",
"G  c #515151",
"H  c gray32",
"J  c #535353",
"K  c gray33",
"L  c #555555",
"P  c #565656",
"I  c gray34",
"U  c #585858",
"Y  c gray35",
"T  c #5A5A5A",
"R  c #5B5B5B",
"E  c gray36",
"W  c #5D5D5D",
"Q  c gray37",
"!  c #5F5F5F",
"~  c #606060",
"^  c gray38",
"/  c #626262",
"(  c gray39",
")  c #646464",
"_  c #656565",
"`  c gray40",
"'  c #676767",
"]  c #686868",
"[  c DimGray",
"{  c #6A6A6A",
"}  c gray42",
"|  c #6C6C6C",
" . c #6D6D6D",
".. c gray43",
"X. c #6F6F6F",
"o. c gray44",
"O. c #717171",
"+. c #727272",
"@. c gray45",
"#. c #747474",
"$. c gray46",
"%. c #767676",
"&. c gray47",
/* pixels */
": : o w i c d M l c M M V H ) 8 * : H T S T ~ i * Q T K c c 8 % % : w H H K M S w * d K V S i c c H H V H y % : l M i y y y w w ",
"M w 8 % l S S H T T K S K c i 4 8 { T Q ~ { l w c Q Q T K M : * i 4 y w l c d l y l ~ Q Q T c d H S H V l w : S K T Q ~ T T ~ K ",
"S w 4 : d i y l S c y 8 : 4 : y M ~ K T | l 8 l ) ~ Q M Q y : 8 H d 4 i d y * w 8 w l T K Q y 4 l c M y c M i ) ) K ) T T ~ T V ",
"M i : * : : 4 w : 4 4 8 y w : l S S ~ K c 4 y { ) Q H T T 8 : S S T K y * : i S H Q K w ) S i i y y M K K l : { { ~ T Q Q M S S ",
"H w 4 o d l M M M d T Q T l : y K K H K 4 8 { T Q Q Q H V 4 8 K H { 8 l S y y M Q K Q V w 8 M d d w y 4 4 8 8 i ~ ) ~ ~ ~ ) ) ~ ",
": 4 % w M y ~ Q T K Q K Q K % c l c c : 8 i K M H T y K d : i H S d | T Q Q M c V Q K T V 8 d ~ l i i i i i w 8 l T H ) ) { ~ 4 ",
": * 8 i V ) ) ) Q Q Q Q K K * : 8 M d 4 : l T K K K T c : y 8 w ~ T K K K T K 4 K { T T c y M T Q Q d K H ~ i i : 8 y c c c c y ",
"o * 8 V T ~ ~ T Q T Q ~ Q i w 4 d l % : 4 l T Q T K K T 4 * i K K H Q T Q ~ K S M | ~ H l i S T ~ ~ Q H K K M d 8 l i 8 w 4 : o ",
"o * y V Q ~ Q T K Q ~ Q M w d c : 8 4 4 : w V ) { ) c l : y T H T T K K Q ~ d S l @.Q T y d ) ~ ~ Q ) H S K T l w c V V 8 8 4 % ",
"o * 8 d M i ~ T K Q Q V 8 y T S w 4 i T 8 4 d l d d l : y M Q H K K Q Q K ~ c V V ~ ) H 8 l | ~ | Q Q M T T Q c y y c Q T l w % ",
"i d * l T V K K K T S 8 w ) V K 4 i l K S l : d d M c 8 d K K T K Q S Q ) T c M c { Q M w K Q ) ~ ~ ~ T H H H V 4 w Q Q ) { ~ c ",
"H T d i d Q T K T V y i V S T l : y Q d S w w M K T ) 4 d c K T K K ) c T d 8 y d S { S 8 M ~ Q Q ) ) K T T H i y 4 K { ) | &.c ",
"H T V w d Q Q T | i 4 S S K l w 4 i T H i y i c K H T S y l d ~ ~ Q S y 8 8 w 8 d 4 l d 8 l ) T Q Q H T T S y w y l c | | K Q H ",
"H ~ V y l c S { y 8 y M H c * d w y c l i * l V H S K Q c : y i l 8 4 4 : c l ) ~ Q c i w 4 l ~ T ~ K d S : w Q K d y | ) | { T ",
"T ~ c l 8 l i 8 : * % : 8 w i S 8 d S T i : d c M H ~ S V c ~ c 4 V S 4 l H ) Q T Q H H K w 4 8 M M H V w c Q K Q M i @.) @.~ ~ ",
"H ) M i * w : w 4 8 l y d * c i 4 l V l : 4 8 c ~ H Q l 8 K H Q S i 4 y M S T Q T ~ H T H V i 8 i i 4 8 i T ~ T K ~ 8 | ~ ) { Q ",
"H Q M d * 4 w i K S 8 V d : d c d * i y : c i 8 M S S w | T T T ~ 4 8 4 S K T K ~ K Q T V K i : K S y M ) ) T H T Q w { ~ ~ Q V ",
"V ~ i d : i { S V H K ) d y c d K l l % w V S V 4 w i c T T T T S 4 4 M T Q K T T Q S l K K y : K i V T T Q H T ~ S y ~ T Q ~ K ",
"M K d 4 8 S T K T H H M 4 c V M V M S c y M H S K S : K ) Q Q K : 4 y V c M V H Q T c ~ V T y 4 4 w T Q Q ~ T T ~ i y M T T T V ",
"w l l : i | ~ K K T ) l i y l V H S S T y y M K S M i S H T H S 4 4 i S H H T ~ Q K T K K S d : y l T T T T Q ) Q d i l T H c y ",
"4 y d * l | H T K Q c i d S c K S S c l M * 8 M i 8 d Q T K T l % 4 V H T K Q ~ ~ K K T K H i l l i T Q ~ { ) ) @.S 8 4 * 4 4 8 ",
"V V M l w V Q H T Q M 4 c c V V S c T Q H 8 M d H V 4 V ~ H T * : i H H K ~ T S ) Q T H Q d * V i l H T Q ~ ~ ) H i w y : 4 V c ",
"M K Q M : M K K Q ~ c * l V T K H Q ~ Q S d K Q ~ ) V 4 M S S % : w V K T T Q ~ ~ K Q V i 8 8 y 4 y l Q { Q ~ { l w l i 4 4 K l ",
"V Q T { d 8 H ~ Q ) c : M K T Q ~ ~ T K M c Q T T T T w c 8 c 4 * 8 i M ~ ) @.Q V M d y 4 d M M l 4 d M M { ~ S : l V M % y S l ",
"V K T T c 4 M ) { c 8 4 w d d S V V V S w T Q ~ ) Q ) y K H y 8 8 : 4 w i l d l d d 8 4 i K K H l S y y d d 8 M w * w w 4 : l M ",
"K H Q T V i d l i 8 y H H V M w w i c l M ) ) T Q ) ) i M H 8 l c d d w l 4 l H T Q 4 i ) T T T K K d c 4 y c V 4 M c y * % 4 S ",
"Q ~ H Q H M y 4 : y T T H T T y d Q Q d V ~ ) T Q | { i : d ~ K K K ) K M V 8 H K 8 y ~ T Q T Q K V T V 4 M H w i V H ) 8 : : 4 ",
": K T S T c M 4 i d T l Q H Q y 8 { c w S T ) ) { Q T d 8 S H H Q H K S H H w y 4 d K T ) Q Q K c H T V 8 V i i H K S S y : % o ",
"* M l Q H i w 8 d Q H K K H ~ i w w V l w S V K @.) S w 8 H H K K H T Q K H y w w ) Q Q T Q T l T ~ T c w 8 c K V T T l d : * o ",
"4 y 8 8 * : 4 8 T ~ Q K ~ Q { w : M ~ ) K M d y S K H w 8 T Q T T T H H Q H V * M H T V ~ ~ Q T Q ~ H c w M V M K Q Q K 8 8 4 4 ",
"S T V M w : w ~ Q H ~ ~ Q Q c y V Q T T ~ Q Q S w c 4 l y T T K V H Q ~ T Q y 4 S Q Q T T T ~ ~ c H l 4 l S d d Q ~ T ~ y d % 4 ",
"y H S S ~ : 8 Q T ~ T ~ T { d y | | T T Q T K T l : c H * ~ T V ~ T K K Q w : 4 8 l S Q ~ S Q | V l 4 i y 4 l T Q Q ~ K c l 4 : ",
"V H H H Q 4 4 T M K Q ) ) l 8 ~ T Q Q Q { Q ~ ) d y S T y c K T T T Q T S 4 | V H l 8 S { ~ | M i 8 : y S H ~ ) ~ Q ) 8 T c % 8 ",
"c H H T Q : y K Q T ~ { K c l T T K Q T ~ ~ ) V w c Q K l 8 S ~ K T M i y Q H T H T V y H S S i i M 8 l Q { ~ ~ ) ~ @.V T c * y ",
"y V V M c * 8 l Q { ~ | c 4 i S ) Q Q T ~ K l d 4 i ~ K Q 8 d l H M y d | Q Q H H Q H M y M i w H S * M Q Q ) ) T Q d Q T l 8 o ",
"4 y d y w 4 8 w i c M M : : : d l T T H K M w d i 4 S H T w 4 4 4 i w S T Q ~ H T S ) ~ M 4 % M K d 8 S T ) ) { { c H { @.c % : ",
"i V ~ T c 4 M T i i * c c M M 8 c V K S M w T ) K M M ) S d y V V i 4 S Q ~ T Q T Q K K S w S 8 l l * M Q ~ ) ~ y T ) Q M l 8 : ",
"H T ) K T w ) T K V 8 V H S K ~ y M K c * c T H T c i c V 4 l Q K M l y S | i T ~ K Q K y V H M : w w M ~ Q ) y K ) ) { S : w T ",
"S Q ~ K ~ i { M l d * l T K S H c 8 V : w i K T T d : c d l d Q ~ Q c 4 V H H T T ) Q d M Q K H M 4 w i ) H d Q ~ #.Q H : : 8 H ",
"S T ) { ) y V 8 w 4 y 4 i ) K S l 4 * : y y T T T 8 V Q H K l H { ) ) l d 4 Q ~ M Q H l ) Q ~ Q V c : d w T { | T M w d i w i S ",
"K T | ) V y i w V H M d 8 y M S 4 * 8 c : y T T i i i T ~ ) M w V l i : 4 8 Q ~ Q T 8 V ~ { Q ) T V 4 d c c S S M K | | S 4 l V ",
"K ~ ~ K l M y { Q Q T T c w c l : i l K T 4 y H w 8 i T K { H 8 c K T l : i ) V Q i i V Q ) ) ~ | V 4 ) ) @.{ | ~ Q ~ K K 4 y 8 ",
"l H T M i y #.) T Q Q { V w i * c { T T T T 8 i : 8 i T T T M c S H H M : i Q K Q 8 l ~ Q ~ ~ ~ { V i ) K T T ~ T ) K K Q 8 4 8 ",
"o y 8 d d ) { Q ~ Q T ~ ) i l c ~ Q ~ T ~ T T 8 8 4 4 c Q V y M T T K i * d S Q w 4 i ) T T ~ ) ~ S V K Q K ~ T ) T Q K w V l o ",
"y 4 8 { Q Q { ~ Q ~ H ~ Q 8 * ) ) ) ) ~ ) ~ V K w : 8 w d 4 8 8 d c l : : y y w 8 8 d K Q ~ { H c d l ) ~ | Q K H S i V K K l % ",
"* i H K H Q Q Q T T Q ~ y i c ) K { ) ~ ) T T S Q i 8 : c K | ~ K S c d c M Q K V 4 i V M S M y c S S c 8 4 8 c y w l T K | w y ",
"8 8 l l K T H ~ K ) Q w w w V T Q ~ ) Q ) S c y Q V y 4 S T Q ~ M H T l c S T K S 8 S H i w y V | K H T w T T c V w V Q K i l M ",
"T c 4 c c l M l i y w d 8 w V Q Q T T | ~ S ~ Q ~ T y : c T K T H Q Q y V ) S H S i ) S M w V ) ) Q Q y T T ~ ~ M V 4 H V i T V ",
"M K { d : y y 8 4 8 w l c d V K Q ~ ~ Q M T Q ~ Q Q w : M K K Q T T V 4 M M K T H M { T 4 c @.Q T ~ y Q Q T Q T Q V M 4 i S T V ",
"K Q T H T d w 8 d l : c ~ c w V Q Q ) ) l T T ~ Q M w * y K T S M d d i 4 S Q T V M ~ l M ) T ~ ) K Q T ) Q K Q ) i : : i ~ T H ",
"{ ~ ) ) T c d w c l V V y M : V d d c V ) #.@.Q c w : w d 4 * i V c { { { l i M V d i : l T H Q Q { K { T K ~ T i 8 d d c T T ) ",
"y M i l c d M i V ~ Q c V l y * : : : 8 w 8 w i 4 : V S V M 8 d Q ~ Q Q K ) V w * w i w K S T T ) ~ ) ) T { ~ K w 8 S V y c M y ",
"l M V l 8 d w 4 M ~ i S { S V w M T ) Q ~ M w i d l V Q K i y T Q K ) ~ ~ T ~ M 8 H d w V K d ) T ~ Q Q ) ~ T i 4 S T T 4 8 8 8 ",
"H T H c : d l : V T { T Q H S : l T ~ ) ~ 4 y 8 d H T S S w 4 ) K ) T K ) T T S M 8 y 8 H S K V T ~ Q ) ~ { M w 8 S V K c d c K ",
"S T V 4 i K c w V l V K S S S S i Q ) ) M V | w l Q Q Q S 4 8 i T ~ T ~ ~ Q Q K S l 4 8 Q V S y K K T T ~ H y w 8 w i d 8 8 M M ",
"i V c y M K V 8 M 4 i d d l l w y V Q S T T K K y ~ Q T V 4 y H K Q { | T S M M M V 4 * y d S w H Q K Q ) i 8 w w K S c c c 8 y ",
": l * l T K d 4 4 y S | #.#.{ S w d w ~ Q K K K i V T T c 4 c H T Q M i y i M 8 i V : 8 : l V y K H K l y 8 : w T Q T ~ ) T M : ",
": : l d H S 8 : w T K ~ T T K Q l M ~ Q Q Q ~ c 8 S ~ K c 8 l H H i y i #.) H ) l * : l i * 8 l w 8 4 4 : d : M T Q ) ~ Q ) c i ",
"* i i d T l : 8 T K K T Q H Q H 8 c Q ~ c y 4 y y 8 8 : 8 y i y 8 y l ~ Q { T T K w 8 c ) * i 4 * M H H H S y i K K ~ Q ) V K K ",
"w : i H d % 8 K S K K K H ~ K l : l S d y i { T y 8 H T H H M w l | T { | ~ T Q V S : i c * l M c * c K T H d 4 c T ~ Q K V ~ H ",
"* * V d * * K V H K K T K T V 4 l i c w T K K K V w S T K T M 8 T K ~ ~ ) Q ~ K T K 8 l c : i K T l : c S M l 4 c K H T ~ c { 8 ",
"4 : w % : V M S K S S S V i T K V d 4 K Q Q K S S i H T Q T c i K K ~ ) Q ~ Q K Q c 4 w S 4 c M H ~ l w d T d : 8 H Q T d K T 8 ",
"  * 8 : S c S i H T H K T K H K y y i Q Q K H Q S 8 i i l l i y H T K T Q H T T T c 8 w w : y M T ~ T l : 8 y % w i i d l M V 4 ",
". o o y l d d M l : M V V K H H 4 : H T S H H S l * l H V c w o 4 l V M V V S V S : : d S V o l ~ H K S c i . o o o * * : o % o "
};
