/* XPM */
static char *e822f913dc194ba9b54bc1ac37cf2746JMzUqI5TCWFpo2Gm[] = {
/* columns rows colors chars-per-pixel */
"64 64 65 1 ",
"  c #070705",
". c #080806",
"X c #090907",
"o c #0A0A08",
"O c #0B0B09",
"+ c #0C0C0A",
"@ c #0D0D0B",
"# c #0E0E0C",
"$ c #0F0F0D",
"% c #10100E",
"& c #11110F",
"* c #121210",
"= c #131311",
"- c #141412",
"; c #151513",
": c #161614",
"> c #171715",
", c #181816",
"< c #191917",
"1 c #1A1A18",
"2 c #1B1B19",
"3 c #1C1C1A",
"4 c #1D1D1B",
"5 c #1E1E1C",
"6 c #1F1F1D",
"7 c #20201E",
"8 c #21211F",
"9 c #222220",
"0 c #232321",
"q c #242422",
"w c #252523",
"e c #262624",
"r c #272725",
"t c #282826",
"y c #292927",
"u c #2A2A28",
"i c #2B2B29",
"p c #2C2C2A",
"a c #2D2D2B",
"s c #2E2E2C",
"d c #2F2F2D",
"f c #31312F",
"g c #323230",
"h c #333331",
"j c #343432",
"k c #353533",
"l c #363634",
"z c #373735",
"x c #383836",
"c c #393937",
"v c #3A3A38",
"b c #3B3B39",
"n c #3C3C3A",
"m c #3D3D3B",
"M c #3E3E3C",
"N c #3F3F3D",
"B c #40403E",
"V c #41413F",
"C c #424240",
"Z c #434341",
"A c #444442",
"S c #454543",
"D c #464644",
"F c #474745",
"G c #484846",
/* pixels */
"ZVNVAme**%:*%:**%mVmmVm*%--*:*:e8-jVZNV***-%ZNx--*:%-**%*-*%--$:",
"<5522exAV*$-%<mN<5-22:5<<@NVmVj844554<85--m9<<:<%-*NZl25*22e%A55",
"45555552<lb*A<5484<582452-:92<:<<<5254@bZ-<:8$:NN<58<:55Z48<%4:4",
"222<24424*q<V$22<2422422*VN$54228*8<$-V22N:<-A22<9<-555@8-454-82",
":<44222<444<24-:4<444428-t2pV4:<*d$*:d9224l*V<295<9422-2<t28:*5<",
"84::25422228%4*5<<444422%4<24Z<%V29*-424542b-48-:4:-@%2*24<49%%4",
"4444<:::822252%@454:<45<<:5854%-:4-O825424:2N%xVV-*Z8t<*24<<<5*5",
"422222242525<<4*44<454<%m224<55%25<$2:<25:95:%q:<4-422%*<<4442-:",
"2<52<54225<2224$%52<8:8%852255<*<<2*:4*8544522*<528<4<%*2<<224%2",
"4<4222222224222-*:<2-%*d:44:-<<<24:$4:852<8-5<-5:822q$$**:$*-<--",
"5<2422<22:4422<4O%9@@*<25<:242:%5<q%45:282482O-<2@-*$:%Nbx5-*:54",
"524422224:44<2<4:X**-t84<:<<-:2:<4-*<455:224:*8@:mZ8:4A5482244<%",
"4452<44<4<52<522O<mq<:5:<882<54**:%-2582944<-$$dh9<:-Zh<8242<<-*",
"245<:54<2<42254<%@V<Gd495<:25<*-4<q-*@$*@:4***N:q25:<N244-5444::",
"2252<42<22242<<-*<:52<N%84255*2b:8445:mVbb<$%Z<9:5<4%l<88284442%",
"4254242222<52%*$<82<524V%54<2*%55424<:25442--44<5454*4524442548$",
"<54542:528:%$$p*545<4<42d24%*:444-44-%845425<<444292-2524425<84%",
"5:9-q44:<8%$-A--444484448$:fNmV*<844%<95259-25<<52:@:44524<55<9@",
"2<<822484@:$8-2*25225524<9l2252N428@-8Z444:4:44944*<*24<45<8O**@",
"-4:58<8:$*%A<<4*28222528%j445-5<*-2-V:4-:4<%$42@:OmV%2854:8@*N%*",
"X%42248$*%m2222-<8442548%m224944:5@%52qx<*%9*8$*%8<%-522<q2*V8<$",
"<$-@-<X-@<424452-2452442-V49-28:8%:m82<5-N85<---mutuZ*:-*@$N<428",
"V$*%@@:%Z<5:58-4--45224*$V:<94:22-24254<-:54<OV484254V%<-e2<4422",
":A***:%N4<4545454:54224$-q2224428%85<454*8:$2m8<25425<5%244::2<2",
"242445942444454282*5<5:**d55:24-4:4<224:%f-V444844245455*<5<<<52",
"54<25:<244444442:q%X52*$-h<242<8<-:22::%44-42<4<44442524<82<4945",
"52928*544442222224@-%$@-%*$<:2229X:%29:<<<-8:4<82822545$*2482424",
"<842O*922442<222<2*Vx:NdV4$$%828<%*5-<*<82*:<:8:24:49:8:55425555",
"422$-*44224224448:@Z454<5:uV-$%%-:b5--*45$$29:84:224-q%%:94284-4",
"-4$:j<<4224445425$%N4<942482N<VVm4549@em-$:%*58:552<9%mA::492852",
"*<-85xO5224444<-@%-m:8<429-85$4255:q<b8<$:VVf%29245$%Z9:5*:$2<5@",
":m<522V*222242-$*Z:5445542842-252524*42%*p452VV%:O*-52282jZ2A:%:",
"22444248Z%*$**b592<2482<42522*8444<$V2%Z:A42q528mZ*N444548*28:4<",
"22444245282:@:42245922<449:59%%5248:@*m<*5224-8554549q2528<985<:",
"22224444444:4<:5444:9484449<4<<48<$%952*V995859<5:Z44284545%44:5",
"2<<<24445<2%x5$448254:<5458:*O%$5--*-**-5:4522284:uq8-5454995*qX",
"42<<24445-44<54*$25-249<-@$-@*b-X<x2ub9x454488424m4242452222%9:-",
"44422444254:@2554%*-**$*-:pN-59<452*84<925822:94%N942q5:5582*5@%",
":24422444:592:5<8@-m24-Vx<8$l8:5524548<59224954%ZN4444558<-8$$Z8",
"$-24222449:24%$*%%b52<5-22@::lA*-$$<$854252825<d5h42544<<25<%-22",
":$-8-8-$@-$%*%-*2<<8<<2<4-4%V492dNNh<<$:5252<9%54*8245424<<4$Z-4",
"$D@%$@:tDNduq44:424-:8*54854<4-48<54@*2@<22q2%Z222245::2:54@*28*",
"*9e%<-V22552<45*54:5<<5:-5:%*548<45:822*525*5*248822<9<89-:$552*",
"x8-2<8484224<<55<2*52492:@:*N*44q2225%<:-8<5%x48:<4<:*$%$$:2<%$%",
":<q85:92422:<54<*A:-%O%OX:-5-5<4<5522*%%**%@%55:84422:lN*-b4<4$2",
"55*-5222<24242-<N4<*A-*9Z::455:%282-%$<Z8Z-VV4442<2<Op4848928<5-",
"$58*%2255::45-:l582q4*:<<:222<4-2$:$%Nm225%42:24552*-m<2542824<8",
"-%@-9::%:95O%:%:*8*%**2%*m-2225*4:VV85458--5222<<5:%x-8<45555442",
"-tV<4:94**-*VN225OD:<:-:V8-45525**824824<<%9<2844O%d242544:842<2",
"*84945448<2--2:5:-244$m<525544<:*-<928544:uX9<42%$%54<<:<48222<4",
"-:5:55:*242:4--85<%*4*44<2@:525<$5-284<4$%44%$@%*VZ2-585<2224**<",
"%q485<5-:2<<*NZ$5:**%%5<4*@$:854%hu%--<*d2454*-V4:D4594-58$%-@*:",
"5<<248$$88:-N4<5<$<mm-22@%V8%<@:V2$42<54-4854*N<<9$424:4O$-%dmVj",
"%442:*--@@%$A544:<5<92**-x:48V:V<*8V8824:::84%5425j-22<%-:N48225",
"<-%-:x44hNNm:2428-45<28%<8:95-95<84V5<*952*5-:42444$--%-t%9*2422",
"4%4*44:55<24-<555*4524$-2<<2:94<<4<m449<55@**V*48:*h-4824<:5:58-",
"%t55:5444245*5<5%*245*A:@5:42%4:4-4b<<92%-mV4:5%@:N4242<8<<2452<",
"-<5<<<455:*%$545-**$*<44%$5@::O2<4@:29-%-<2:55:<%u845<-5--454422",
"*8<:44--VVN5$$-$b<<m<-:<5:$*b5-:$%Vb*4%%V2<9<:2<%x2459444-:<484<",
"<@-G<5*<5<42NVmt48428V<2<*N5:8<*Z5292%%:2:4425<*-5254222<:42<445",
"N%V<82d8:5*$45<44-88:2*8<45<4:--<29-5q$$:q8:85@%4*42<242$%4544:-",
":2*:2<245X*V*<8855<29:8:-52<:55%42<92-958:24<%*44842495-**2442%O",
"2%N$O*$*$p85O522<29-2<$%<4244: *555444$$-484<-%<45:45:%*-:52%%%*",
"--28$8$2*<**-%<44<:52$*--*54@%:***$%-:$:-%$$%%%5428%%%**-*:*%---"
};
